<mxfile host="app.diagrams.net" agent="Mozilla/5.0 (X11; Linux x86_64; rv:129.0) Gecko/20100101 Firefox/129.0" version="24.7.12">
  <diagram name="Page-1" id="F0XnIYGUqXPQz47TBP3L">
    <mxGraphModel dx="1434" dy="879" grid="1" gridSize="10" guides="1" tooltips="1" connect="1" arrows="1" fold="1" page="1" pageScale="1" pageWidth="850" pageHeight="1100" math="0" shadow="0">
      <root>
        <mxCell id="0" />
        <mxCell id="1" parent="0" />
        <mxCell id="OlrSXuJHgxv2iaZxCGAz-8" style="edgeStyle=orthogonalEdgeStyle;rounded=0;orthogonalLoop=1;jettySize=auto;html=1;exitX=1;exitY=0.5;exitDx=0;exitDy=0;entryX=0.5;entryY=0;entryDx=0;entryDy=0;" edge="1" parent="1" source="OlrSXuJHgxv2iaZxCGAz-1" target="OlrSXuJHgxv2iaZxCGAz-7">
          <mxGeometry relative="1" as="geometry" />
        </mxCell>
        <mxCell id="OlrSXuJHgxv2iaZxCGAz-31" style="edgeStyle=orthogonalEdgeStyle;rounded=0;orthogonalLoop=1;jettySize=auto;html=1;entryX=0.5;entryY=0;entryDx=0;entryDy=0;" edge="1" parent="1" source="OlrSXuJHgxv2iaZxCGAz-1" target="OlrSXuJHgxv2iaZxCGAz-6">
          <mxGeometry relative="1" as="geometry" />
        </mxCell>
        <mxCell id="OlrSXuJHgxv2iaZxCGAz-1" value="COS-IT-FLOWS Dashboard" style="rounded=1;whiteSpace=wrap;html=1;" vertex="1" parent="1">
          <mxGeometry x="300" y="90" width="260" height="120" as="geometry" />
        </mxCell>
        <mxCell id="OlrSXuJHgxv2iaZxCGAz-6" value="" style="rounded=0;whiteSpace=wrap;html=1;" vertex="1" parent="1">
          <mxGeometry x="40" y="370" width="590" height="130" as="geometry" />
        </mxCell>
        <mxCell id="OlrSXuJHgxv2iaZxCGAz-2" value="Monitoring" style="rounded=1;whiteSpace=wrap;html=1;" vertex="1" parent="1">
          <mxGeometry x="70" y="410" width="120" height="60" as="geometry" />
        </mxCell>
        <mxCell id="OlrSXuJHgxv2iaZxCGAz-29" style="edgeStyle=orthogonalEdgeStyle;rounded=0;orthogonalLoop=1;jettySize=auto;html=1;" edge="1" parent="1" source="OlrSXuJHgxv2iaZxCGAz-3" target="OlrSXuJHgxv2iaZxCGAz-12">
          <mxGeometry relative="1" as="geometry" />
        </mxCell>
        <mxCell id="OlrSXuJHgxv2iaZxCGAz-3" value="Forecasting" style="rounded=1;whiteSpace=wrap;html=1;" vertex="1" parent="1">
          <mxGeometry x="270" y="410" width="120" height="60" as="geometry" />
        </mxCell>
        <mxCell id="OlrSXuJHgxv2iaZxCGAz-30" style="edgeStyle=orthogonalEdgeStyle;rounded=0;orthogonalLoop=1;jettySize=auto;html=1;" edge="1" parent="1" source="OlrSXuJHgxv2iaZxCGAz-4" target="OlrSXuJHgxv2iaZxCGAz-25">
          <mxGeometry relative="1" as="geometry">
            <Array as="points">
              <mxPoint x="700" y="440" />
            </Array>
          </mxGeometry>
        </mxCell>
        <mxCell id="OlrSXuJHgxv2iaZxCGAz-4" value="Impact" style="rounded=1;whiteSpace=wrap;html=1;" vertex="1" parent="1">
          <mxGeometry x="470" y="410" width="120" height="60" as="geometry" />
        </mxCell>
        <mxCell id="OlrSXuJHgxv2iaZxCGAz-5" value="Response" style="rounded=1;whiteSpace=wrap;html=1;" vertex="1" parent="1">
          <mxGeometry x="750" y="410" width="120" height="60" as="geometry" />
        </mxCell>
        <mxCell id="OlrSXuJHgxv2iaZxCGAz-9" style="edgeStyle=orthogonalEdgeStyle;rounded=0;orthogonalLoop=1;jettySize=auto;html=1;exitX=0.5;exitY=1;exitDx=0;exitDy=0;" edge="1" parent="1" source="OlrSXuJHgxv2iaZxCGAz-7" target="OlrSXuJHgxv2iaZxCGAz-5">
          <mxGeometry relative="1" as="geometry" />
        </mxCell>
        <mxCell id="OlrSXuJHgxv2iaZxCGAz-7" value="If Administraton?" style="rhombus;whiteSpace=wrap;html=1;" vertex="1" parent="1">
          <mxGeometry x="740" y="170" width="140" height="140" as="geometry" />
        </mxCell>
        <mxCell id="OlrSXuJHgxv2iaZxCGAz-10" value="True" style="text;html=1;align=center;verticalAlign=middle;resizable=0;points=[];autosize=1;strokeColor=none;fillColor=none;" vertex="1" parent="1">
          <mxGeometry x="805" y="338" width="50" height="30" as="geometry" />
        </mxCell>
        <mxCell id="OlrSXuJHgxv2iaZxCGAz-12" value="" style="swimlane;startSize=0;" vertex="1" parent="1">
          <mxGeometry x="350" y="590" width="270" height="350" as="geometry" />
        </mxCell>
        <mxCell id="OlrSXuJHgxv2iaZxCGAz-16" value="Integrated Reservoir Management" style="rounded=1;whiteSpace=wrap;html=1;" vertex="1" parent="OlrSXuJHgxv2iaZxCGAz-12">
          <mxGeometry x="40" y="30" width="190" height="70" as="geometry" />
        </mxCell>
        <mxCell id="OlrSXuJHgxv2iaZxCGAz-18" value="River Flow Model" style="rounded=1;whiteSpace=wrap;html=1;" vertex="1" parent="OlrSXuJHgxv2iaZxCGAz-12">
          <mxGeometry x="40" y="110" width="190" height="70" as="geometry" />
        </mxCell>
        <mxCell id="OlrSXuJHgxv2iaZxCGAz-17" value="Debris Flow Model" style="rounded=1;whiteSpace=wrap;html=1;" vertex="1" parent="OlrSXuJHgxv2iaZxCGAz-12">
          <mxGeometry x="40" y="190" width="190" height="70" as="geometry" />
        </mxCell>
        <mxCell id="OlrSXuJHgxv2iaZxCGAz-20" value="" style="swimlane;startSize=0;" vertex="1" parent="1">
          <mxGeometry x="40" y="590" width="270" height="350" as="geometry" />
        </mxCell>
        <mxCell id="OlrSXuJHgxv2iaZxCGAz-21" value="Stations" style="rounded=1;whiteSpace=wrap;html=1;" vertex="1" parent="OlrSXuJHgxv2iaZxCGAz-20">
          <mxGeometry x="40" y="30" width="190" height="70" as="geometry" />
        </mxCell>
        <mxCell id="OlrSXuJHgxv2iaZxCGAz-22" value="Boundaries" style="rounded=1;whiteSpace=wrap;html=1;" vertex="1" parent="OlrSXuJHgxv2iaZxCGAz-20">
          <mxGeometry x="40" y="110" width="190" height="70" as="geometry" />
        </mxCell>
        <mxCell id="OlrSXuJHgxv2iaZxCGAz-23" value="External API Data" style="rounded=1;whiteSpace=wrap;html=1;" vertex="1" parent="OlrSXuJHgxv2iaZxCGAz-20">
          <mxGeometry x="40" y="190" width="190" height="70" as="geometry" />
        </mxCell>
        <mxCell id="OlrSXuJHgxv2iaZxCGAz-24" style="edgeStyle=orthogonalEdgeStyle;rounded=0;orthogonalLoop=1;jettySize=auto;html=1;entryX=0.47;entryY=0.006;entryDx=0;entryDy=0;entryPerimeter=0;" edge="1" parent="1" source="OlrSXuJHgxv2iaZxCGAz-2" target="OlrSXuJHgxv2iaZxCGAz-20">
          <mxGeometry relative="1" as="geometry" />
        </mxCell>
        <mxCell id="OlrSXuJHgxv2iaZxCGAz-25" value="" style="swimlane;startSize=0;" vertex="1" parent="1">
          <mxGeometry x="660" y="590" width="270" height="350" as="geometry" />
        </mxCell>
        <mxCell id="OlrSXuJHgxv2iaZxCGAz-26" value="Stations" style="rounded=1;whiteSpace=wrap;html=1;" vertex="1" parent="OlrSXuJHgxv2iaZxCGAz-25">
          <mxGeometry x="40" y="30" width="190" height="70" as="geometry" />
        </mxCell>
        <mxCell id="OlrSXuJHgxv2iaZxCGAz-27" value="Boundaries" style="rounded=1;whiteSpace=wrap;html=1;" vertex="1" parent="OlrSXuJHgxv2iaZxCGAz-25">
          <mxGeometry x="40" y="110" width="190" height="70" as="geometry" />
        </mxCell>
        <mxCell id="OlrSXuJHgxv2iaZxCGAz-28" value="External API Data" style="rounded=1;whiteSpace=wrap;html=1;" vertex="1" parent="OlrSXuJHgxv2iaZxCGAz-25">
          <mxGeometry x="40" y="190" width="190" height="70" as="geometry" />
        </mxCell>
      </root>
    </mxGraphModel>
  </diagram>
</mxfile>
